<svg xmlns="http://www.w3.org/2000/svg" viewBox="0 0 512 512" role="img" aria-label="Fire Watcher fire rescue icon">
  <defs>
    <linearGradient id="bg" x1="0" y1="0" x2="1" y2="1">
      <stop offset="0%" stop-color="#fb923c" />
      <stop offset="60%" stop-color="#ea580c" />
      <stop offset="100%" stop-color="#c2410c" />
    </linearGradient>
    <linearGradient id="body" x1="0" y1="0" x2="0" y2="1">
      <stop offset="0%" stop-color="#ef4444" />
      <stop offset="100%" stop-color="#b91c1c" />
    </linearGradient>
  </defs>

  <rect x="24" y="24" width="464" height="464" rx="104" fill="url(#bg)" />

  <rect x="178" y="182" width="156" height="222" rx="42" fill="url(#body)" />
  <rect x="212" y="136" width="88" height="58" rx="18" fill="#991b1b" />
  <rect x="292" y="128" width="78" height="26" rx="12" fill="#fef2f2" />
  <rect x="354" y="112" width="44" height="24" rx="10" fill="#111827" />

  <path d="M325 160c40 8 58 36 58 73v14" fill="none" stroke="#111827" stroke-width="18" stroke-linecap="round" />
  <path d="M383 247c0 20-16 36-36 36" fill="none" stroke="#111827" stroke-width="18" stroke-linecap="round" />

  <circle cx="256" cy="294" r="46" fill="#fff7ed" opacity="0.95" />
  <rect x="245" y="267" width="22" height="54" rx="6" fill="#dc2626" />
  <rect x="229" y="283" width="54" height="22" rx="6" fill="#dc2626" />

  <path d="M222 385h68" stroke="#fee2e2" stroke-width="14" stroke-linecap="round" opacity="0.9" />
</svg>
