<svg xmlns="http://www.w3.org/2000/svg" viewBox="0 0 1200 630" role="img" aria-label="Fire Watcher social preview">
  <defs>
    <linearGradient id="bg" x1="0" y1="0" x2="1" y2="1">
      <stop offset="0%" stop-color="#111827" />
      <stop offset="55%" stop-color="#1f2937" />
      <stop offset="100%" stop-color="#7c2d12" />
    </linearGradient>
    <radialGradient id="glow" cx="85%" cy="20%" r="80%">
      <stop offset="0%" stop-color="#fb923c" stop-opacity="0.35" />
      <stop offset="100%" stop-color="#fb923c" stop-opacity="0" />
    </radialGradient>
  </defs>

  <rect width="1200" height="630" fill="url(#bg)" />
  <rect width="1200" height="630" fill="url(#glow)" />

  <g transform="translate(90 135)">
    <rect x="0" y="0" width="200" height="200" rx="48" fill="#ea580c" />
    <rect x="0" y="0" width="200" height="200" rx="48" fill="none" stroke="#fdba74" stroke-opacity="0.55" />

    <rect x="67" y="65" width="66" height="95" rx="18" fill="#b91c1c" />
    <rect x="81" y="45" width="38" height="25" rx="8" fill="#7f1d1d" />
    <rect x="116" y="42" width="36" height="10" rx="5" fill="#fff7ed" />
    <path d="M132 56c18 4 28 17 28 34v6" fill="none" stroke="#111827" stroke-width="7" stroke-linecap="round" />
    <path d="M160 96c0 9-7 16-16 16" fill="none" stroke="#111827" stroke-width="7" stroke-linecap="round" />

    <circle cx="100" cy="113" r="21" fill="#fff7ed" />
    <rect x="95" y="101" width="10" height="24" rx="3" fill="#dc2626" />
    <rect x="88" y="108" width="24" height="10" rx="3" fill="#dc2626" />
  </g>

  <text x="330" y="225" fill="#f9fafb" font-size="76" font-family="Arial, sans-serif" font-weight="700">
    Fire Watcher
  </text>
  <text x="330" y="295" fill="#fdba74" font-size="34" font-family="Arial, sans-serif" font-weight="600">
    Fire Emergency Reporting and Response
  </text>
  <text x="330" y="365" fill="#d1d5db" font-size="28" font-family="Arial, sans-serif">
    Report incidents fast. Track response status in real time.
  </text>

  <g opacity="0.2">
    <circle cx="1060" cy="120" r="90" fill="#fb923c" />
    <circle cx="1140" cy="70" r="35" fill="#f97316" />
    <circle cx="990" cy="195" r="28" fill="#fb923c" />
  </g>
</svg>
